# xmcd
#
# Track frame offsets: 
#        150
#        18213
#        32648
#        49222
#        66319
#        82948
#        102618
#        118830
#        135026
#        150893
#        168028
#        190580
#        210124
#
# Disc length: 3018 seconds
#
# Revision: 1
# Processed by: cddbd v1.5.2PL0 Copyright (c) Steve Scherf et al.
# Submitted via: ExactAudioCopyFreeDBPlugin 1.0
#
DISCID=920bc80d
DTITLE=Amerie - Touch
DYEAR=2005
DGENRE=R&B
TTITLE0=1 Thing
TTITLE1=All I Need
TTITLE2=Touch
TTITLE3=Not The Only One
TTITLE4=Like It Used To Be
TTITLE5=Talkin' About
TTITLE6=Come With Me
TTITLE7=Rolling Down My Face
TTITLE8=Can We Go Feat. Carl Thomas
TTITLE9=Just Like Me
TTITLE10=Falling
TTITLE11=1 Thing Feat. Eve
TTITLE12=Why Don't We Fall In Love (Richcraft Remix) (Bonus Track)
EXTD=YEAR: 2005
EXTT0=
EXTT1=
EXTT2=
EXTT3=
EXTT4=
EXTT5=
EXTT6=
EXTT7=
EXTT8=
EXTT9=
EXTT10=
EXTT11=
EXTT12=
PLAYORDER=
